<svg xmlns="http://www.w3.org/2000/svg" width="1200" height="1600" viewBox="0 0 350 500" role="img" aria-label="Editable candle label template sage"><rect width="350" height="500" rx="18" fill="#F7F3EA"/><rect x="28" y="28" width="294" height="444" rx="12" fill="none" stroke="#6F7F5F" stroke-width="2"/><rect x="43" y="43" width="264" height="414" rx="8" fill="none" stroke="#6F7F5F" stroke-width="1" opacity=".55"/><g stroke="#6F7F5F" stroke-width="2" fill="none" stroke-linecap="round"><path d="M150 248C142 216 142 184 154 148M153 205C128 196 119 178 111 160M151 194C177 184 187 166 193 147"/><ellipse cx="111" cy="160" rx="9" ry="16" transform="rotate(-35 111 160)"/><ellipse cx="193" cy="147" rx="9" ry="16" transform="rotate(35 193 147)"/></g><g fill="#2F2F2A" text-anchor="middle"><text x="175" y="75" font-family="Georgia,serif" font-size="17" letter-spacing="2">SMALL BATCH</text><text x="175" y="296" font-family="Georgia,serif" font-size="30">Sage Candle Co.</text><text x="175" y="330" font-family="Arial,sans-serif" font-size="14" letter-spacing="3">SCENT NAME</text><text x="175" y="383" font-family="Arial,sans-serif" font-size="13">HAND POURED CANDLE</text><text x="175" y="410" font-family="Arial,sans-serif" font-size="12">NET WT 8 OZ / 226 G</text></g><line x1="92" y1="352" x2="258" y2="352" stroke="#6F7F5F"/></svg>